<svg width="59" height="59" viewBox="0 0 59 59" fill="none" xmlns="http://www.w3.org/2000/svg">
<path fill-rule="evenodd" clip-rule="evenodd" d="M5.92012 0.655457H52.3201C55.5236 0.655457 58.1201 3.252 58.1201 6.45546V52.8555C58.1201 56.0589 55.5236 58.6555 52.3201 58.6555H5.92012C2.71666 58.6555 0.120117 56.0589 0.120117 52.8555V6.45546C0.120117 3.252 2.71666 0.655457 5.92012 0.655457Z" fill="#010101"/>
<path d="M36.8533 14.1888H21.3867C17.1157 14.1888 13.6533 17.6511 13.6533 21.9221V37.3888C13.6533 41.6598 17.1157 45.1221 21.3867 45.1221H36.8533C41.1243 45.1221 44.5867 41.6598 44.5867 37.3888V21.9221C44.5867 17.6511 41.1243 14.1888 36.8533 14.1888Z" stroke="white" stroke-width="2" stroke-linecap="round" stroke-linejoin="round"/>
<path d="M35.3064 28.6811C35.4973 29.9683 35.2774 31.2829 34.6781 32.4379C34.0788 33.593 33.1305 34.5296 31.9681 35.1147C30.8058 35.6997 29.4886 35.9034 28.2038 35.6966C26.919 35.4899 25.7322 34.8833 24.812 33.9632C23.8919 33.043 23.2853 31.8562 23.0786 30.5714C22.8718 29.2867 23.0755 27.9694 23.6605 26.8071C24.2456 25.6447 25.1822 24.6964 26.3373 24.0971C27.4923 23.4978 28.8069 23.2779 30.0942 23.4688C31.4072 23.6635 32.6227 24.2753 33.5613 25.2139C34.4999 26.1525 35.1117 27.3681 35.3064 28.6811Z" stroke="white" stroke-width="2" stroke-linecap="round" stroke-linejoin="round"/>
<path d="M37.626 21.1488H37.6409" stroke="white" stroke-width="2" stroke-linecap="round" stroke-linejoin="round"/>
<g clip-path="url(#clip0_367_7467)">
<path d="M13.8947 14.6233C11.16 17.4639 11.7197 20.4813 11.7197 29.6482C11.7197 37.2607 10.3915 44.8921 17.3428 46.6886C19.5134 47.2469 38.7462 47.2469 40.914 46.6857C43.8082 45.939 46.163 43.5914 46.4849 39.4981C46.5298 38.9268 46.5299 20.3798 46.4834 19.7969C46.1412 15.4368 43.4573 12.9239 39.9207 12.415C39.1102 12.2975 38.9478 12.2627 34.7892 12.2555C20.0383 12.2627 16.8048 11.6059 13.8947 14.6233Z" fill="url(#paint0_linear_367_7467)"/>
<path d="M29.1169 16.807C23.852 16.807 18.8524 16.3386 16.9427 21.2396C16.1539 23.2638 16.2685 25.8927 16.2685 29.6569C16.2685 32.96 16.1626 36.0644 16.9427 38.0727C18.848 42.9766 23.8882 42.5068 29.114 42.5068C34.1557 42.5068 39.354 43.0317 41.2868 38.0727C42.0771 36.0282 41.9611 33.4385 41.9611 29.6569C41.9611 24.637 42.238 21.3962 39.8034 18.9631C37.3384 16.4981 34.0049 16.807 29.1111 16.807H29.1169ZM27.9656 19.1226C38.948 19.1052 40.3457 17.8843 39.5744 34.845C39.3003 40.8436 34.7328 40.1853 29.1184 40.1853C18.8814 40.1853 18.587 39.8924 18.587 29.6511C18.587 19.2908 19.399 19.1284 27.9656 19.1197V19.1226ZM35.9754 21.2556C35.1243 21.2556 34.4341 21.9458 34.4341 22.7969C34.4341 23.6481 35.1243 24.3383 35.9754 24.3383C36.8266 24.3383 37.5168 23.6481 37.5168 22.7969C37.5168 21.9458 36.8266 21.2556 35.9754 21.2556ZM29.1169 23.0579C25.4731 23.0579 22.5194 26.013 22.5194 29.6569C22.5194 33.3007 25.4731 36.2544 29.1169 36.2544C32.7608 36.2544 35.713 33.3007 35.713 29.6569C35.713 26.013 32.7608 23.0579 29.1169 23.0579ZM29.1169 25.3736C34.7792 25.3736 34.7864 33.9402 29.1169 33.9402C23.4561 33.9402 23.4474 25.3736 29.1169 25.3736Z" fill="white"/>
</g>
<defs>
<linearGradient id="paint0_linear_367_7467" x1="13.9614" y1="44.8328" x2="46.3044" y2="16.8403" gradientUnits="userSpaceOnUse">
<stop stop-color="#FFDD55"/>
<stop offset="0.5" stop-color="#FF543E"/>
<stop offset="1" stop-color="#C837AB"/>
</linearGradient>
<clipPath id="clip0_367_7467">
<rect width="34.8" height="34.8" fill="white" transform="translate(11.7197 12.2555)"/>
</clipPath>
</defs>
</svg>
