<svg width="50" height="50" viewBox="0 0 50 50" fill="none" xmlns="http://www.w3.org/2000/svg">
<path fill-rule="evenodd" clip-rule="evenodd" d="M5 0H45C47.7616 0 50 2.2384 50 5V45C50 47.7616 47.7616 50 45 50H5C2.2384 50 0 47.7616 0 45V5C0 2.2384 2.2384 0 5 0Z" fill="white"/>
<path d="M31.6665 11.6666H18.3332C14.6513 11.6666 11.6665 14.6514 11.6665 18.3333V31.6666C11.6665 35.3485 14.6513 38.3333 18.3332 38.3333H31.6665C35.3484 38.3333 38.3332 35.3485 38.3332 31.6666V18.3333C38.3332 14.6514 35.3484 11.6666 31.6665 11.6666Z" stroke="white" stroke-width="2" stroke-linecap="round" stroke-linejoin="round"/>
<path d="M30.3331 24.16C30.4977 25.2697 30.3081 26.403 29.7914 27.3987C29.2748 28.3945 28.4573 29.2019 27.4553 29.7063C26.4532 30.2106 25.3177 30.3862 24.2102 30.2079C23.1026 30.0297 22.0795 29.5068 21.2862 28.7136C20.493 27.9204 19.9701 26.8972 19.7919 25.7897C19.6136 24.6821 19.7892 23.5466 20.2935 22.5445C20.7979 21.5425 21.6054 20.725 22.6011 20.2084C23.5968 19.6917 24.7301 19.5022 25.8398 19.6667C26.9717 19.8345 28.0196 20.362 28.8287 21.1711C29.6378 21.9802 30.1653 23.0281 30.3331 24.16Z" stroke="white" stroke-width="2" stroke-linecap="round" stroke-linejoin="round"/>
<path d="M32.3335 17.6666H32.3464" stroke="white" stroke-width="2" stroke-linecap="round" stroke-linejoin="round"/>
<g clip-path="url(#clip0_851_2484)">
<path d="M11.8751 12.0412C9.51763 14.49 10.0001 17.0912 10.0001 24.9938C10.0001 31.5563 8.85513 38.135 14.8476 39.6838C16.7189 40.165 33.2989 40.165 35.1676 39.6813C37.6626 39.0375 39.6926 37.0138 39.9701 33.485C40.0089 32.9925 40.0089 17.0037 39.9689 16.5012C39.6739 12.7425 37.3601 10.5762 34.3114 10.1375C33.6126 10.0362 33.4726 10.0062 29.8876 10C17.1714 10.0062 14.3839 9.44 11.8751 12.0412Z" fill="url(#paint0_linear_851_2484)"/>
<path d="M24.9978 13.9238C20.459 13.9238 16.149 13.52 14.5028 17.745C13.8228 19.49 13.9215 21.7563 13.9215 25.0013C13.9215 27.8488 13.8303 30.525 14.5028 32.2563C16.1453 36.4838 20.4903 36.0788 24.9953 36.0788C29.3415 36.0788 33.8228 36.5313 35.489 32.2563C36.1703 30.4938 36.0703 28.2613 36.0703 25.0013C36.0703 20.6738 36.309 17.88 34.2103 15.7825C32.0853 13.6575 29.2115 13.9238 24.9928 13.9238H24.9978ZM24.0053 15.92C33.4728 15.905 34.6778 14.8525 34.0128 29.4738C33.7765 34.645 29.839 34.0775 24.999 34.0775C16.174 34.0775 15.9203 33.825 15.9203 24.9963C15.9203 16.065 16.6203 15.925 24.0053 15.9175V15.92ZM30.9103 17.7588C30.1765 17.7588 29.5815 18.3538 29.5815 19.0875C29.5815 19.8213 30.1765 20.4163 30.9103 20.4163C31.644 20.4163 32.239 19.8213 32.239 19.0875C32.239 18.3538 31.644 17.7588 30.9103 17.7588ZM24.9978 19.3125C21.8565 19.3125 19.3103 21.86 19.3103 25.0013C19.3103 28.1425 21.8565 30.6888 24.9978 30.6888C28.139 30.6888 30.684 28.1425 30.684 25.0013C30.684 21.86 28.139 19.3125 24.9978 19.3125ZM24.9978 21.3088C29.879 21.3088 29.8853 28.6938 24.9978 28.6938C20.1178 28.6938 20.1103 21.3088 24.9978 21.3088Z" fill="white"/>
</g>
<defs>
<linearGradient id="paint0_linear_851_2484" x1="11.9327" y1="38.0839" x2="39.8145" y2="13.9525" gradientUnits="userSpaceOnUse">
<stop stop-color="#FFDD55"/>
<stop offset="0.5" stop-color="#FF543E"/>
<stop offset="1" stop-color="#C837AB"/>
</linearGradient>
<clipPath id="clip0_851_2484">
<rect width="30" height="30" fill="white" transform="translate(10 10)"/>
</clipPath>
</defs>
</svg>
