<svg width="59" height="59" viewBox="0 0 59 59" fill="none" xmlns="http://www.w3.org/2000/svg">
<path fill-rule="evenodd" clip-rule="evenodd" d="M6.04023 0.655457H52.4402C55.6437 0.655457 58.2402 3.252 58.2402 6.45546V52.8555C58.2402 56.0589 55.6437 58.6555 52.4402 58.6555H6.04023C2.83678 58.6555 0.240234 56.0589 0.240234 52.8555V6.45546C0.240234 3.252 2.83678 0.655457 6.04023 0.655457Z" fill="#010101"/>
<g clip-path="url(#clip0_367_7476)">
<path d="M34.2665 28.8638C34.4216 29.9096 34.243 30.9777 33.756 31.9162C33.2691 32.8547 32.4986 33.6157 31.5542 34.0911C30.6098 34.5664 29.5395 34.7319 28.4957 34.5639C27.4518 34.3959 26.4875 33.9031 25.7399 33.1555C24.9922 32.4079 24.4994 31.4435 24.3314 30.3997C24.1635 29.3558 24.3289 28.2856 24.8043 27.3412C25.2796 26.3967 26.0406 25.6263 26.9791 25.1393C27.9176 24.6523 28.9857 24.4737 30.0316 24.6288C31.0984 24.787 32.086 25.2841 32.8486 26.0467C33.6112 26.8093 34.1084 27.7969 34.2665 28.8638Z" stroke="white" stroke-width="2" stroke-linecap="round" stroke-linejoin="round"/>
<path d="M36.1514 22.7438H36.1644" stroke="white" stroke-width="2" stroke-linecap="round" stroke-linejoin="round"/>
<path d="M25.1273 41.531C24.2212 41.531 24.3752 41.1954 24.0627 40.3492L21.3984 31.7493L41.9072 19.8158" fill="#C8DAEA"/>
<path d="M25.0176 41.531C25.6756 41.531 25.9662 41.2063 26.3337 40.8212L29.8432 37.1401L25.4655 34.2926" fill="#A9C9DD"/>
<path d="M25.9755 34.1221L37.1527 42.3923C38.4283 43.0971 39.3486 42.7321 39.6664 41.2065L44.2161 19.7346C44.6818 17.8643 43.5042 17.0157 42.2839 17.5705L15.5682 27.8874C13.7447 28.62 13.7555 29.6389 15.2359 30.0929L22.0917 32.236L37.9637 22.2076C38.713 21.7525 39.4008 21.997 38.8364 22.4988" fill="url(#paint0_linear_367_7476)"/>
</g>
<defs>
<linearGradient id="paint0_linear_367_7476" x1="34.0658" y1="28.4741" x2="38.405" y2="38.3459" gradientUnits="userSpaceOnUse">
<stop stop-color="#EFF7FC"/>
<stop offset="1" stop-color="white"/>
</linearGradient>
<clipPath id="clip0_367_7476">
<rect width="30.16" height="30.16" fill="white" transform="translate(14.1602 14.5755)"/>
</clipPath>
</defs>
</svg>
