<svg width="50" height="50" viewBox="0 0 50 50" fill="none" xmlns="http://www.w3.org/2000/svg">
<path fill-rule="evenodd" clip-rule="evenodd" d="M5 0H45C47.7616 0 50 2.2384 50 5V45C50 47.7616 47.7616 50 45 50H5C2.2384 50 0 47.7616 0 45V5C0 2.2384 2.2384 0 5 0Z" fill="white"/>
<path d="M29.3332 24.3175C29.4669 25.2191 29.3129 26.1399 28.8931 26.9489C28.4733 27.7579 27.8091 28.414 26.9949 28.8238C26.1808 29.2336 25.2582 29.3762 24.3583 29.2314C23.4584 29.0866 22.6271 28.6617 21.9826 28.0172C21.3381 27.3727 20.9132 26.5414 20.7684 25.6415C20.6236 24.7416 20.7662 23.819 21.176 23.0049C21.5858 22.1907 22.2419 21.5265 23.0509 21.1067C23.8599 20.6869 24.7807 20.5329 25.6823 20.6666C26.602 20.803 27.4534 21.2315 28.1108 21.889C28.7683 22.5464 29.1968 23.3978 29.3332 24.3175Z" stroke="white" stroke-width="2" stroke-linecap="round" stroke-linejoin="round"/>
<path d="M30.9585 19.0416H30.9698" stroke="white" stroke-width="2" stroke-linecap="round" stroke-linejoin="round"/>
<path d="M21.4548 35.2375C20.6736 35.2375 20.8064 34.9482 20.537 34.2187L18.2402 26.805L35.9202 16.5175" fill="#7FBAEE"/>
<path d="M21.3599 35.2376C21.9271 35.2376 22.1777 34.9577 22.4944 34.6257L25.5199 31.4523L22 29" fill="#A9C9DD"/>
<path d="M22.1857 28.8505L31.8211 35.98C32.9208 36.5876 33.7142 36.2729 33.9881 34.9578L37.9103 16.4475C38.3117 14.8352 37.2966 14.1037 36.2446 14.582L13.2139 23.4758C11.6418 24.1074 11.6512 24.9858 12.9274 25.3771L18.8376 27.2246L32.5203 18.5794C33.1662 18.1871 33.7592 18.3978 33.2726 18.8305" fill="url(#paint0_linear_851_2493)"/>
<defs>
<linearGradient id="paint0_linear_851_2493" x1="29.16" y1="23.9816" x2="32.9007" y2="32.4918" gradientUnits="userSpaceOnUse">
<stop stop-color="#1CA2F6"/>
<stop offset="1" stop-color="#93CEF3"/>
</linearGradient>
</defs>
</svg>
