<svg width="50" height="50" viewBox="0 0 50 50" fill="none" xmlns="http://www.w3.org/2000/svg">
<path fill-rule="evenodd" clip-rule="evenodd" d="M5 0H45C47.7616 0 50 2.2384 50 5V45C50 47.7616 47.7616 50 45 50H5C2.2384 50 0 47.7616 0 45V5C0 2.2384 2.2384 0 5 0Z" fill="white"/>
<path fill-rule="evenodd" clip-rule="evenodd" d="M31.3964 46C32.9178 46 34.1511 44.7766 34.1511 43.2676C34.1511 41.7586 32.9178 40.535 31.3964 40.535H30.9814C32.5028 40.535 33.7361 41.7586 33.7361 43.2676C33.7361 44.7766 32.5028 46 30.9814 46H31.3964Z" fill="#EE1D51"/>
<path fill-rule="evenodd" clip-rule="evenodd" d="M30.9435 40.535H30.5285C29.0071 40.535 27.7734 41.7586 27.7734 43.2676C27.7734 44.7766 29.0071 46 30.5285 46H30.9435C29.4219 46 28.1884 44.7766 28.1884 43.2676C28.1884 41.7586 29.4219 40.535 30.9435 40.535Z" fill="#66C8CF"/>
<path d="M30.9623 44.596C31.7023 44.596 32.3021 44.0012 32.3021 43.2675C32.3021 42.5338 31.7023 41.939 30.9623 41.939C30.2224 41.939 29.6226 42.5338 29.6226 43.2675C29.6226 44.0012 30.2224 44.596 30.9623 44.596Z" fill="#010101"/>
<path fill-rule="evenodd" clip-rule="evenodd" d="M10 39.3V40.6851H11.6224V45.9627H13.2454V40.7224H14.566L15.0188 39.3H10ZM23.283 39.3V40.6851H24.9054V45.9627H26.5284V40.7224H27.849L28.3018 39.3H23.283ZM15.321 40.086C15.321 39.652 15.6752 39.3 16.1128 39.3C16.5508 39.3 16.9054 39.652 16.9054 40.086C16.9054 40.52 16.551 40.8721 16.1128 40.8721C15.6752 40.8719 15.321 40.52 15.321 40.086ZM15.321 41.4337H16.9054V45.9627H15.321V41.4337ZM17.5848 39.3V45.9627H19.1698V44.2411L19.6604 43.7915L21.2074 46.0001H22.9054L20.6788 42.7811L22.6788 40.8344H20.7544L19.1698 42.4065V39.3H17.5848ZM34.6788 39.3V45.9627H36.264V44.2411L36.7544 43.7915L38.3018 46.0001H40L37.7734 42.7811L39.7734 40.8344H37.849L36.264 42.4065V39.3H34.6788Z" fill="#010101"/>
<path fill-rule="evenodd" clip-rule="evenodd" d="M32.2335 16.2372C34.4223 17.801 37.1039 18.7212 39.9999 18.7212V13.151C39.4517 13.1512 38.9051 13.094 38.3689 12.9804V17.365C35.4731 17.365 32.7919 16.4448 30.6025 14.881V26.248C30.6025 31.9344 25.9905 36.5438 20.3015 36.5438C18.1789 36.5438 16.2059 35.9024 14.5669 34.8024C16.4375 36.714 19.0461 37.9 21.9321 37.9C27.6215 37.9 32.2337 33.2906 32.2337 27.604V16.2372H32.2335ZM34.2455 10.6176C33.1269 9.39616 32.3925 7.81756 32.2335 6.07236V5.35596H30.6879C31.0769 7.57396 32.4039 9.46896 34.2455 10.6176ZM18.1651 30.439C17.5402 29.62 17.2024 28.6179 17.2039 27.5878C17.2039 24.987 19.3135 22.8784 21.9161 22.8784C22.4011 22.878 22.8832 22.9524 23.3455 23.099V17.4044C22.8053 17.3304 22.2602 17.299 21.7151 17.3106V21.743C21.2526 21.5964 20.7703 21.522 20.2851 21.5224C17.6825 21.5224 15.5731 23.631 15.5731 26.232C15.5731 28.071 16.6275 29.6634 18.1651 30.439Z" fill="#EE1D52"/>
<path fill-rule="evenodd" clip-rule="evenodd" d="M30.6025 14.881C32.7919 16.4448 35.4731 17.365 38.3689 17.365V12.9804C36.7525 12.6364 35.3215 11.792 34.2455 10.6176C32.4039 9.46896 31.0769 7.57396 30.6879 5.35596H26.6281V27.6038C26.6189 30.1974 24.5129 32.2974 21.9159 32.2974C20.3855 32.2974 19.0259 31.5684 18.1649 30.439C16.6273 29.6634 15.5729 28.071 15.5729 26.232C15.5729 23.631 17.6823 21.5224 20.2849 21.5224C20.7835 21.5224 21.2641 21.6 21.7149 21.743V17.3106C16.1259 17.426 11.6309 21.9904 11.6309 27.604C11.6309 30.4062 12.7503 32.9466 14.5669 34.8026C16.2059 35.9026 18.1789 36.544 20.3015 36.544C25.9905 36.544 30.6025 31.9344 30.6025 26.2482V14.881Z" fill="#010101"/>
<path fill-rule="evenodd" clip-rule="evenodd" d="M38.3686 12.9804V11.7948C36.9109 11.797 35.482 11.389 34.2453 10.6174C35.34 11.8154 36.7816 12.6415 38.3686 12.9804ZM30.6877 5.356C30.6505 5.14405 30.622 4.93067 30.6023 4.7164V4H24.9967V26.248C24.9877 28.8414 22.8819 30.9414 20.2847 30.9414C19.5221 30.9414 18.8024 30.7606 18.1648 30.439C19.0258 31.5684 20.3853 32.2974 21.9157 32.2974C24.5125 32.2974 26.6187 30.1974 26.6279 27.6038V5.356H30.6877ZM21.7149 17.3106V16.0484C21.2465 15.9844 20.7743 15.9524 20.3015 15.9526C14.612 15.9526 10 20.5622 10 26.248C10 29.8128 11.8126 32.9544 14.567 34.8024C12.7504 32.9464 11.631 30.406 11.631 27.6038C11.631 21.9904 16.1258 17.426 21.7149 17.3106Z" fill="#69C9D0"/>
<path fill-rule="evenodd" clip-rule="evenodd" d="M30.9808 46C32.5022 46 33.7357 44.7766 33.7357 43.2676C33.7357 41.7586 32.5022 40.535 30.9808 40.535H30.9432C29.4218 40.535 28.1885 41.7586 28.1885 43.2676C28.1885 44.7766 29.4218 46 30.9432 46H30.9808ZM29.6224 43.2676C29.6224 42.5336 30.2224 41.939 30.9624 41.939C31.7018 41.939 32.3018 42.5336 32.3018 43.2676C32.3018 44.0016 31.7018 44.5966 30.9624 44.5966C30.2224 44.5964 29.6224 44.0016 29.6224 43.2676Z" fill="white"/>
</svg>
