<svg width="58" height="59" viewBox="0 0 58 59" fill="none" xmlns="http://www.w3.org/2000/svg">
<g clip-path="url(#clip0_367_7456)">
<path fill-rule="evenodd" clip-rule="evenodd" d="M5.8 0.655457H52.2C55.4035 0.655457 58 3.252 58 6.45546V52.8555C58 56.0589 55.4035 58.6555 52.2 58.6555H5.8C2.59654 58.6555 0 56.0589 0 52.8555V6.45546C0 3.252 2.59654 0.655457 5.8 0.655457Z" fill="#010101"/>
<path fill-rule="evenodd" clip-rule="evenodd" d="M36.4199 54.0154C38.1846 54.0154 39.6153 52.5963 39.6153 50.8458C39.6153 49.0954 38.1846 47.676 36.4199 47.676H35.9385C37.7032 47.676 39.1339 49.0954 39.1339 50.8458C39.1339 52.5963 37.7032 54.0154 35.9385 54.0154H36.4199Z" fill="#EE1D51"/>
<path fill-rule="evenodd" clip-rule="evenodd" d="M35.894 47.676H35.4126C33.6478 47.676 32.2168 49.0954 32.2168 50.8458C32.2168 52.5963 33.6478 54.0154 35.4126 54.0154H35.894C34.129 54.0154 32.6982 52.5963 32.6982 50.8458C32.6982 49.0954 34.129 47.676 35.894 47.676Z" fill="#66C8CF"/>
<path d="M35.9164 52.3868C36.7748 52.3868 37.4706 51.6969 37.4706 50.8458C37.4706 49.9947 36.7748 49.3047 35.9164 49.3047C35.0581 49.3047 34.3623 49.9947 34.3623 50.8458C34.3623 51.6969 35.0581 52.3868 35.9164 52.3868Z" fill="#010101"/>
<path fill-rule="evenodd" clip-rule="evenodd" d="M11.5996 46.2435V47.8501H13.4816V53.9721H15.3643V47.8934H16.8962L17.4214 46.2435H11.5996ZM27.0079 46.2435V47.8501H28.8899V53.9721H30.7726V47.8934H32.3045L32.8297 46.2435H27.0079ZM17.772 47.1552C17.772 46.6518 18.1828 46.2435 18.6905 46.2435C19.1985 46.2435 19.6099 46.6518 19.6099 47.1552C19.6099 47.6587 19.1988 48.067 18.6905 48.067C18.1828 48.0668 17.772 47.6587 17.772 47.1552ZM17.772 48.7184H19.6099V53.9721H17.772V48.7184ZM20.398 46.2435V53.9721H22.2366V51.975L22.8057 51.4535L24.6002 54.0155H26.5699L23.987 50.2814L26.307 48.0234H24.0747L22.2366 49.8469V46.2435H20.398ZM40.227 46.2435V53.9721H42.0659V51.975L42.6347 51.4535L44.4297 54.0155H46.3996L43.8168 50.2814L46.1368 48.0234H43.9045L42.0659 49.8469V46.2435H40.227Z" fill="white"/>
<path fill-rule="evenodd" clip-rule="evenodd" d="M37.3907 19.4906C39.9297 21.3046 43.0404 22.372 46.3997 22.372V15.9106C45.7639 15.9108 45.1298 15.8445 44.5078 15.7127V20.7988C41.1486 20.7988 38.0384 19.7314 35.4987 17.9174V31.1031C35.4987 37.6993 30.1488 43.0462 23.5496 43.0462C21.0874 43.0462 18.7987 42.3022 16.8975 41.0262C19.0674 43.2437 22.0933 44.6194 25.4411 44.6194C32.0408 44.6194 37.3909 39.2725 37.3909 32.6761V19.4906H37.3907ZM39.7246 12.9718C38.427 11.555 37.5751 9.72384 37.3907 7.69941V6.86839H35.5978C36.049 9.44127 37.5884 11.6395 39.7246 12.9718ZM21.0714 35.9647C20.3465 35.0146 19.9546 33.8523 19.9564 32.6573C19.9564 29.6403 22.4035 27.1944 25.4225 27.1944C25.9851 27.194 26.5444 27.2803 27.0806 27.4503V20.8445C26.454 20.7587 25.8217 20.7223 25.1894 20.7357V25.8773C24.6529 25.7073 24.0934 25.621 23.5306 25.6214C20.5116 25.6214 18.0647 28.0674 18.0647 31.0845C18.0647 33.2178 19.2878 35.065 21.0714 35.9647Z" fill="#EE1D52"/>
<path fill-rule="evenodd" clip-rule="evenodd" d="M35.4992 17.9174C38.039 19.7314 41.1491 20.7988 44.5083 20.7988V15.7127C42.6333 15.3137 40.9733 14.3341 39.7251 12.9718C37.5889 11.6395 36.0496 9.44127 35.5983 6.86839H30.8889V32.6758C30.8783 35.6844 28.4353 38.1204 25.4228 38.1204C23.6475 38.1204 22.0704 37.2748 21.0716 35.9647C19.288 35.065 18.0649 33.2178 18.0649 31.0846C18.0649 28.0674 20.5118 25.6214 23.5308 25.6214C24.1092 25.6214 24.6667 25.7114 25.1896 25.8773V20.7357C18.7064 20.8696 13.4922 26.1643 13.4922 32.6761C13.4922 35.9266 14.7907 38.8735 16.8979 41.0264C18.7992 42.3024 21.0879 43.0465 23.5501 43.0465C30.1493 43.0465 35.4992 37.6993 35.4992 31.1033V17.9174Z" fill="white"/>
<path fill-rule="evenodd" clip-rule="evenodd" d="M44.5072 15.7127V14.3374C42.8163 14.34 41.1588 13.8667 39.7241 12.9717C40.994 14.3613 42.6663 15.3196 44.5072 15.7127ZM35.5973 6.86843C35.5542 6.62257 35.5212 6.37505 35.4983 6.1265V5.29547H28.9958V31.1031C28.9854 34.1115 26.5427 36.5475 23.5299 36.5475C22.6453 36.5475 21.8103 36.3378 21.0707 35.9647C22.0695 37.2748 23.6466 38.1204 25.4219 38.1204C28.4341 38.1204 30.8773 35.6845 30.888 32.6759V6.86843H35.5973ZM25.1889 20.7358V19.2716C24.6456 19.1973 24.0978 19.1602 23.5494 19.1605C16.9495 19.1605 11.5996 24.5076 11.5996 31.1031C11.5996 35.2383 13.7022 38.8826 16.8973 41.0262C14.7901 38.8733 13.4916 35.9264 13.4916 32.6759C13.4916 26.1643 18.7055 20.8696 25.1889 20.7358Z" fill="#69C9D0"/>
<path fill-rule="evenodd" clip-rule="evenodd" d="M35.9373 54.0154C37.7021 54.0154 39.1331 52.5963 39.1331 50.8458C39.1331 49.0954 37.7021 47.676 35.9373 47.676H35.8937C34.1289 47.676 32.6982 49.0954 32.6982 50.8458C32.6982 52.5963 34.1289 54.0154 35.8937 54.0154H35.9373ZM34.3616 50.8458C34.3616 49.9944 35.0576 49.3047 35.916 49.3047C36.7737 49.3047 37.4697 49.9944 37.4697 50.8458C37.4697 51.6973 36.7737 52.3875 35.916 52.3875C35.0576 52.3872 34.3616 51.6973 34.3616 50.8458Z" fill="white"/>
</g>
<defs>
<clipPath id="clip0_367_7456">
<rect width="58" height="58" fill="white" transform="translate(0 0.655457)"/>
</clipPath>
</defs>
</svg>
