<svg width="38" height="38" viewBox="0 0 38 38" fill="none" xmlns="http://www.w3.org/2000/svg">
<circle cx="19" cy="19" r="19" fill="#DADAE8"/>
<path d="M11.5 14H13.1667H26.5" stroke="white" stroke-width="1.5" stroke-linecap="round" stroke-linejoin="round"/>
<path d="M15.6665 14V12.3333C15.6665 11.8913 15.8421 11.4674 16.1547 11.1548C16.4672 10.8423 16.8911 10.6667 17.3332 10.6667H20.6665C21.1085 10.6667 21.5325 10.8423 21.845 11.1548C22.1576 11.4674 22.3332 11.8913 22.3332 12.3333V14M24.8332 14V25.6667C24.8332 26.1087 24.6576 26.5326 24.345 26.8452C24.0325 27.1577 23.6085 27.3333 23.1665 27.3333H14.8332C14.3911 27.3333 13.9672 27.1577 13.6547 26.8452C13.3421 26.5326 13.1665 26.1087 13.1665 25.6667V14H24.8332Z" stroke="white" stroke-width="1.5" stroke-linecap="round" stroke-linejoin="round"/>
</svg>
