<svg width="10" height="13" viewBox="0 0 10 13" fill="none" xmlns="http://www.w3.org/2000/svg">
<path d="M4.92952 12.978C3.60352 12.978 2.58352 12.7117 1.86952 12.179C1.15552 11.6463 0.798523 10.8417 0.798523 9.765C0.798523 9.33433 0.860857 8.94333 0.985523 8.592H0.186523V7.504H1.61452C1.84119 7.27733 2.14152 7.07333 2.51552 6.892C2.90086 6.69933 3.29752 6.52933 3.70552 6.382C4.12486 6.23467 4.49319 6.11 4.81052 6.008C5.12786 5.89467 5.33186 5.81533 5.42252 5.77H0.186523V4.682H6.68052C6.77119 4.52333 6.83352 4.359 6.86752 4.189C6.91286 4.019 6.93552 3.80367 6.93552 3.543C6.93552 3.01033 6.75419 2.59667 6.39152 2.302C6.02886 1.996 5.46219 1.843 4.69152 1.843C4.13619 1.843 3.60919 1.91667 3.11052 2.064C2.62319 2.21133 2.18686 2.37567 1.80152 2.557L1.37652 1.214C1.80719 1.01 2.33419 0.84 2.95752 0.704C3.58086 0.568 4.18719 0.5 4.77652 0.5C5.92119 0.5 6.82219 0.738 7.47952 1.214C8.14819 1.67867 8.48252 2.39267 8.48252 3.356C8.48252 3.594 8.46552 3.832 8.43152 4.07C8.39752 4.29667 8.33519 4.50067 8.24452 4.682H9.17952V5.77H7.70052C7.51919 5.95133 7.23586 6.13833 6.85052 6.331C6.46519 6.51233 6.06286 6.68233 5.64352 6.841C5.22419 6.99967 4.84452 7.13567 4.50452 7.249C4.16452 7.36233 3.94352 7.44733 3.84152 7.504H9.17952V8.592H2.56652C2.47586 8.762 2.41352 8.92067 2.37952 9.068C2.34552 9.21533 2.32852 9.41933 2.32852 9.68C2.32852 10.9947 3.24086 11.652 5.06552 11.652C5.71152 11.652 6.33486 11.5727 6.93552 11.414C7.54752 11.244 8.05752 11.0683 8.46552 10.887V12.264C8.08019 12.4453 7.56452 12.6097 6.91852 12.757C6.27252 12.9043 5.60952 12.978 4.92952 12.978Z" fill="#131313"/>
</svg>
